<svg width="360" height="408" viewBox="0 0 360 408" fill="none" xmlns="http://www.w3.org/2000/svg">
<g clip-path="url(#clip0_1082_2191)">
<rect width="360" height="408" rx="8" fill="white"/>
<rect x="0.5" y="0.5" width="359" height="47" stroke="black" stroke-opacity="0.1"/>
<g clip-path="url(#clip1_1082_2191)">
<rect x="16" y="12" width="24" height="24" rx="0.96" fill="url(#paint0_linear_1082_2191)"/>
<path d="M34.6576 25.9443L32.301 28.301L29.9443 30.6576V27.3054C29.9443 26.5537 30.5537 25.9443 31.3054 25.9443H34.6576Z" fill="url(#paint1_linear_1082_2191)"/>
<path d="M32.4721 17C33.8682 17 34.9999 18.1317 34.9999 19.5278V24.7777H31.3055C29.9095 24.7777 28.7777 25.9095 28.7777 27.3055V30.9999H23.5278C22.1317 30.9999 21 29.8682 21 28.4721V19.5278C21 18.1317 22.1317 17 23.5278 17H32.4721Z" fill="url(#paint2_linear_1082_2191)"/>
</g>
<path d="M55.051 25.184C55.051 25.7927 54.9227 26.3243 54.666 26.779C54.4093 27.2263 54.039 27.571 53.555 27.813C53.0783 28.055 52.5137 28.176 51.861 28.176C51.2157 28.176 50.651 28.055 50.167 27.813C49.6903 27.571 49.32 27.2263 49.056 26.779C48.7993 26.3243 48.671 25.7927 48.671 25.184V20.179H50.277V25.184C50.277 25.712 50.4127 26.1153 50.684 26.394C50.9627 26.6727 51.355 26.812 51.861 26.812C52.367 26.812 52.7557 26.6727 53.027 26.394C53.3057 26.1153 53.445 25.712 53.445 25.184V20.179H55.051V25.184ZM63.1156 20.19L60.5196 24.084L63.1376 28H61.3226L59.5846 25.283L57.8246 28H56.0316L58.6496 24.073L56.0536 20.19H57.8576L59.5956 22.863L61.3226 20.19H63.1156ZM73.5722 25.371C73.3962 26.2437 73.0148 26.9293 72.4282 27.428C71.8488 27.9267 71.1045 28.176 70.1952 28.176C69.4398 28.176 68.7798 28 68.2152 27.648C67.6505 27.296 67.2142 26.812 66.9062 26.196C66.6055 25.5727 66.4552 24.876 66.4552 24.106C66.4552 23.336 66.6055 22.6393 66.9062 22.016C67.2142 21.3927 67.6505 20.905 68.2152 20.553C68.7798 20.1937 69.4398 20.014 70.1952 20.014C71.0752 20.014 71.8048 20.2523 72.3842 20.729C72.9635 21.2057 73.3448 21.8583 73.5282 22.687L71.8672 22.775C71.7645 22.3423 71.5665 22.0013 71.2732 21.752C70.9798 21.5027 70.6095 21.378 70.1622 21.378C69.7075 21.378 69.3262 21.4953 69.0182 21.73C68.7102 21.9647 68.4792 22.291 68.3252 22.709C68.1785 23.1197 68.1052 23.5853 68.1052 24.106C68.1052 24.6267 68.1785 25.0923 68.3252 25.503C68.4792 25.9063 68.7102 26.2253 69.0182 26.46C69.3262 26.6947 69.7075 26.812 70.1622 26.812C70.6315 26.812 71.0128 26.6763 71.3062 26.405C71.5995 26.1263 71.7938 25.7523 71.8892 25.283L73.5722 25.371ZM77.3736 28.132C76.7796 28.132 76.2589 28.0073 75.8116 27.758C75.3643 27.5087 75.0196 27.153 74.7776 26.691C74.5356 26.229 74.4146 25.6937 74.4146 25.085C74.4146 24.4763 74.5356 23.941 74.7776 23.479C75.0196 23.017 75.3643 22.6613 75.8116 22.412C76.2589 22.1627 76.7796 22.038 77.3736 22.038C77.9603 22.038 78.4773 22.1627 78.9246 22.412C79.3719 22.6613 79.7166 23.017 79.9586 23.479C80.2079 23.941 80.3326 24.4763 80.3326 25.085C80.3326 25.6937 80.2079 26.229 79.9586 26.691C79.7166 27.153 79.3719 27.5087 78.9246 27.758C78.4773 28.0073 77.9603 28.132 77.3736 28.132ZM77.3736 26.889C77.7989 26.889 78.1253 26.7313 78.3526 26.416C78.5873 26.1007 78.7046 25.657 78.7046 25.085C78.7046 24.513 78.5873 24.0693 78.3526 23.754C78.1253 23.4387 77.7989 23.281 77.3736 23.281C76.9483 23.281 76.6183 23.4387 76.3836 23.754C76.1563 24.0693 76.0426 24.513 76.0426 25.085C76.0426 25.657 76.1563 26.1007 76.3836 26.416C76.6183 26.7313 76.9483 26.889 77.3736 26.889ZM81.437 22.17H82.955L82.999 23.38L82.878 23.27C83.0173 22.874 83.2447 22.5697 83.56 22.357C83.8827 22.1443 84.2677 22.038 84.715 22.038C85.2503 22.038 85.705 22.1737 86.079 22.445C86.4603 22.709 86.7463 23.072 86.937 23.534C87.1277 23.9887 87.223 24.5057 87.223 25.085C87.223 25.6643 87.1277 26.185 86.937 26.647C86.7463 27.1017 86.4603 27.4647 86.079 27.736C85.705 28 85.2503 28.132 84.715 28.132C84.429 28.132 84.165 28.0843 83.923 27.989C83.681 27.8937 83.472 27.7543 83.296 27.571C83.12 27.3803 82.9807 27.1493 82.878 26.878L83.021 26.79V29.65H81.437V22.17ZM82.911 25.085C82.911 25.4223 82.9587 25.7267 83.054 25.998C83.1567 26.2693 83.307 26.4893 83.505 26.658C83.7103 26.8193 83.9597 26.9 84.253 26.9C84.6857 26.9 85.0157 26.7277 85.243 26.383C85.4703 26.0383 85.584 25.6057 85.584 25.085C85.584 24.5717 85.4667 24.1427 85.232 23.798C85.0047 23.446 84.6783 23.27 84.253 23.27C83.9597 23.27 83.7103 23.3543 83.505 23.523C83.307 23.6843 83.1567 23.9043 83.054 24.183C82.9587 24.4543 82.911 24.755 82.911 25.085ZM89.0869 22.17L90.5719 26.35L92.0019 22.17H93.5089L91.2099 28.572C91.0779 28.946 90.8836 29.2173 90.6269 29.386C90.3702 29.562 90.0366 29.65 89.6259 29.65H88.6359V28.473H89.3289C89.5049 28.473 89.6406 28.4437 89.7359 28.385C89.8386 28.3263 89.9156 28.231 89.9669 28.099L90.1209 27.725H89.6699L87.5689 22.17H89.0869ZM105.911 24.139V25.437H96.7261V24.139H105.911ZM115.486 21.554H113.143V28H111.537V21.554H109.194V20.19H115.486V21.554ZM118.073 20.19V23.512L117.842 23.622C117.937 23.0647 118.153 22.6613 118.491 22.412C118.835 22.1627 119.253 22.038 119.745 22.038C120.361 22.038 120.841 22.2433 121.186 22.654C121.53 23.0573 121.703 23.589 121.703 24.249V28H120.119V24.81C120.119 24.4653 120.089 24.1903 120.031 23.985C119.972 23.7797 119.873 23.622 119.734 23.512C119.602 23.402 119.422 23.347 119.195 23.347C118.835 23.347 118.557 23.4717 118.359 23.721C118.168 23.963 118.073 24.326 118.073 24.81V28H116.489V20.19H118.073ZM122.722 25.085C122.722 24.4763 122.843 23.941 123.085 23.479C123.327 23.017 123.672 22.6613 124.119 22.412C124.567 22.1627 125.084 22.038 125.67 22.038C126.206 22.038 126.686 22.159 127.111 22.401C127.537 22.643 127.87 23.0023 128.112 23.479C128.362 23.9483 128.486 24.5167 128.486 25.184L128.497 25.503H124.372C124.402 25.9503 124.53 26.3023 124.757 26.559C124.985 26.8083 125.289 26.933 125.67 26.933C125.927 26.933 126.158 26.867 126.363 26.735C126.569 26.603 126.719 26.4197 126.814 26.185L128.409 26.306C128.233 26.8633 127.896 27.307 127.397 27.637C126.906 27.967 126.33 28.132 125.67 28.132C125.084 28.132 124.567 28.0073 124.119 27.758C123.672 27.5087 123.327 27.153 123.085 26.691C122.843 26.229 122.722 25.6937 122.722 25.085ZM126.88 24.513C126.829 24.0803 126.693 23.7613 126.473 23.556C126.261 23.3433 125.993 23.237 125.67 23.237C125.311 23.237 125.018 23.3507 124.79 23.578C124.57 23.798 124.435 24.1097 124.383 24.513H126.88ZM134.568 20.19H136.405L139.221 28H137.593L136.999 26.284H133.974L133.38 28H131.752L134.568 20.19ZM136.548 24.942L135.481 21.851L134.425 24.942H136.548ZM141.922 20.19V28H140.316V20.19H141.922ZM152.882 25.371C152.706 26.2437 152.324 26.9293 151.738 27.428C151.158 27.9267 150.414 28.176 149.505 28.176C148.749 28.176 148.089 28 147.525 27.648C146.96 27.296 146.524 26.812 146.216 26.196C145.915 25.5727 145.765 24.876 145.765 24.106C145.765 23.336 145.915 22.6393 146.216 22.016C146.524 21.3927 146.96 20.905 147.525 20.553C148.089 20.1937 148.749 20.014 149.505 20.014C150.385 20.014 151.114 20.2523 151.694 20.729C152.273 21.2057 152.654 21.8583 152.838 22.687L151.177 22.775C151.074 22.3423 150.876 22.0013 150.583 21.752C150.289 21.5027 149.919 21.378 149.472 21.378C149.017 21.378 148.636 21.4953 148.328 21.73C148.02 21.9647 147.789 22.291 147.635 22.709C147.488 23.1197 147.415 23.5853 147.415 24.106C147.415 24.6267 147.488 25.0923 147.635 25.503C147.789 25.9063 148.02 26.2253 148.328 26.46C148.636 26.6947 149.017 26.812 149.472 26.812C149.941 26.812 150.322 26.6763 150.616 26.405C150.909 26.1263 151.103 25.7523 151.199 25.283L152.882 25.371ZM156.683 28.132C156.089 28.132 155.569 28.0073 155.121 27.758C154.674 27.5087 154.329 27.153 154.087 26.691C153.845 26.229 153.724 25.6937 153.724 25.085C153.724 24.4763 153.845 23.941 154.087 23.479C154.329 23.017 154.674 22.6613 155.121 22.412C155.569 22.1627 156.089 22.038 156.683 22.038C157.27 22.038 157.787 22.1627 158.234 22.412C158.682 22.6613 159.026 23.017 159.268 23.479C159.518 23.941 159.642 24.4763 159.642 25.085C159.642 25.6937 159.518 26.229 159.268 26.691C159.026 27.153 158.682 27.5087 158.234 27.758C157.787 28.0073 157.27 28.132 156.683 28.132ZM156.683 26.889C157.109 26.889 157.435 26.7313 157.662 26.416C157.897 26.1007 158.014 25.657 158.014 25.085C158.014 24.513 157.897 24.0693 157.662 23.754C157.435 23.4387 157.109 23.281 156.683 23.281C156.258 23.281 155.928 23.4387 155.693 23.754C155.466 24.0693 155.352 24.513 155.352 25.085C155.352 25.657 155.466 26.1007 155.693 26.416C155.928 26.7313 156.258 26.889 156.683 26.889ZM160.747 22.17H162.265L162.309 23.38L162.188 23.27C162.327 22.874 162.554 22.5697 162.87 22.357C163.192 22.1443 163.577 22.038 164.025 22.038C164.56 22.038 165.015 22.1737 165.389 22.445C165.77 22.709 166.056 23.072 166.247 23.534C166.437 23.9887 166.533 24.5057 166.533 25.085C166.533 25.6643 166.437 26.185 166.247 26.647C166.056 27.1017 165.77 27.4647 165.389 27.736C165.015 28 164.56 28.132 164.025 28.132C163.739 28.132 163.475 28.0843 163.233 27.989C162.991 27.8937 162.782 27.7543 162.606 27.571C162.43 27.3803 162.29 27.1493 162.188 26.878L162.331 26.79V29.65H160.747V22.17ZM162.221 25.085C162.221 25.4223 162.268 25.7267 162.364 25.998C162.466 26.2693 162.617 26.4893 162.815 26.658C163.02 26.8193 163.269 26.9 163.563 26.9C163.995 26.9 164.325 26.7277 164.553 26.383C164.78 26.0383 164.894 25.6057 164.894 25.085C164.894 24.5717 164.776 24.1427 164.542 23.798C164.314 23.446 163.988 23.27 163.563 23.27C163.269 23.27 163.02 23.3543 162.815 23.523C162.617 23.6843 162.466 23.9043 162.364 24.183C162.268 24.4543 162.221 24.755 162.221 25.085ZM168.396 22.17L169.881 26.35L171.311 22.17H172.818L170.519 28.572C170.387 28.946 170.193 29.2173 169.936 29.386C169.68 29.562 169.346 29.65 168.935 29.65H167.945V28.473H168.638C168.814 28.473 168.95 28.4437 169.045 28.385C169.148 28.3263 169.225 28.231 169.276 28.099L169.43 27.725H168.979L166.878 22.17H168.396ZM179.507 26.174L180.618 22.17H182.136L180.365 28H178.814L177.714 24.26L176.614 28H175.052L173.281 22.17H174.799L175.91 26.174L177.054 22.17H178.363L179.507 26.174ZM184.629 22.17L184.684 23.853L184.574 23.798C184.648 23.248 184.805 22.841 185.047 22.577C185.289 22.3057 185.63 22.17 186.07 22.17H186.609V23.369H186.059C185.744 23.369 185.487 23.4203 185.289 23.523C185.091 23.6183 184.945 23.7687 184.849 23.974C184.761 24.172 184.717 24.425 184.717 24.733V28H183.133V22.17H184.629ZM189.154 22.17V28H187.57V22.17H189.154ZM189.187 20.19V21.4H187.548V20.19H189.187ZM192.607 20.85V26.13C192.607 26.35 192.662 26.5187 192.772 26.636C192.889 26.746 193.05 26.801 193.256 26.801H194.158V28H192.948C192.317 28 191.837 27.8423 191.507 27.527C191.184 27.2117 191.023 26.746 191.023 26.13V20.85H192.607ZM194.147 22.17V23.358H190.088V22.17H194.147ZM194.749 25.085C194.749 24.4763 194.87 23.941 195.112 23.479C195.354 23.017 195.699 22.6613 196.146 22.412C196.593 22.1627 197.11 22.038 197.697 22.038C198.232 22.038 198.713 22.159 199.138 22.401C199.563 22.643 199.897 23.0023 200.139 23.479C200.388 23.9483 200.513 24.5167 200.513 25.184L200.524 25.503H196.399C196.428 25.9503 196.557 26.3023 196.784 26.559C197.011 26.8083 197.316 26.933 197.697 26.933C197.954 26.933 198.185 26.867 198.39 26.735C198.595 26.603 198.746 26.4197 198.841 26.185L200.436 26.306C200.26 26.8633 199.923 27.307 199.424 27.637C198.933 27.967 198.357 28.132 197.697 28.132C197.11 28.132 196.593 28.0073 196.146 27.758C195.699 27.5087 195.354 27.153 195.112 26.691C194.87 26.229 194.749 25.6937 194.749 25.085ZM198.907 24.513C198.856 24.0803 198.72 23.7613 198.5 23.556C198.287 23.3433 198.02 23.237 197.697 23.237C197.338 23.237 197.044 23.3507 196.817 23.578C196.597 23.798 196.461 24.1097 196.41 24.513H198.907ZM203.138 22.17L203.193 23.853L203.083 23.798C203.156 23.248 203.314 22.841 203.556 22.577C203.798 22.3057 204.139 22.17 204.579 22.17H205.118V23.369H204.568C204.253 23.369 203.996 23.4203 203.798 23.523C203.6 23.6183 203.453 23.7687 203.358 23.974C203.27 24.172 203.226 24.425 203.226 24.733V28H201.642V22.17H203.138Z" fill="black"/>
<rect x="148" y="111" width="64" height="64" rx="4" fill="url(#paint3_linear_1082_2191)"/>
<path d="M169.333 136.333V132.333H190.666V136.333" stroke="black" stroke-width="3" stroke-linecap="round" stroke-linejoin="round"/>
<path d="M176 153.667H184" stroke="black" stroke-width="3" stroke-linecap="round" stroke-linejoin="round"/>
<path d="M180 132.333V153.667" stroke="black" stroke-width="3" stroke-linecap="round" stroke-linejoin="round"/>
<path d="M125.73 208.55C125.85 209.25 126.33 209.69 127.15 209.69C127.75 209.69 128.15 209.45 128.14 209.01C128.13 208.55 127.74 208.31 126.75 208.07C125.07 207.68 124.11 207.04 124.11 205.89C124.11 204.57 125.23 203.74 126.93 203.74C128.55 203.74 129.65 204.72 129.82 206.2L128.08 206.27C128.01 205.58 127.56 205.16 126.89 205.16C126.28 205.16 125.86 205.46 125.9 205.92C125.92 206.43 126.53 206.62 127.23 206.78C128.91 207.12 129.92 207.82 129.92 208.97C129.92 210.33 128.73 211.12 127.11 211.12C125.32 211.12 124.08 210.16 123.98 208.64L125.73 208.55ZM130.928 203.9H136.038V205.34H132.688V206.73H135.918V208.15H132.688V209.56H136.118V211H130.928V203.9ZM137.207 211V203.9H138.967V209.56H142.137V211H137.207ZM143.184 203.9H148.294V205.34H144.944V206.73H148.174V208.15H144.944V209.56H148.374V211H143.184V203.9ZM155.823 208.53C155.483 210.16 154.373 211.16 152.663 211.16C150.543 211.16 149.163 209.58 149.163 207.46C149.163 205.34 150.533 203.74 152.663 203.74C154.343 203.74 155.453 204.7 155.803 206.28L153.993 206.36C153.833 205.64 153.353 205.18 152.623 205.18C151.503 205.18 150.963 206.13 150.963 207.46C150.963 208.78 151.503 209.72 152.623 209.72C153.373 209.72 153.863 209.22 153.993 208.45L155.823 208.53ZM162.25 203.9V205.34H160.15V211H158.39V205.34H156.3V203.9H162.25ZM165 211L167.56 203.9H169.47L172.03 211H170.29L169.83 209.67H167.19L166.74 211H165ZM167.67 208.27H169.36L168.52 205.79L167.67 208.27ZM180.726 203.9V205.34H178.626V211H176.866V205.34H174.776V203.9H180.726ZM181.69 203.9H186.8V205.34H183.45V206.73H186.68V208.15H183.45V209.56H186.88V211H181.69V203.9ZM192.429 203.9H194.379L191.999 207.43L194.399 211H192.429L190.989 208.74L189.539 211H187.579L189.979 207.43L187.599 203.9H189.559L190.989 206.12L192.429 203.9ZM200.921 203.9V205.34H198.821V211H197.061V205.34H194.971V203.9H200.921ZM204.092 211V203.9H205.852V209.56H209.022V211H204.092ZM209.727 211L212.287 203.9H214.197L216.757 211H215.017L214.557 209.67H211.917L211.467 211H209.727ZM212.397 208.27H214.087L213.247 205.79L212.397 208.27ZM216.162 203.9H218.012L219.442 206.65L220.862 203.9H222.702L220.322 208.29V211H218.562V208.29L216.162 203.9ZM223.496 203.9H228.606V205.34H225.256V206.73H228.486V208.15H225.256V209.56H228.686V211H223.496V203.9ZM233.026 203.9C234.486 203.9 235.636 204.64 235.636 206.03C235.636 206.94 235.136 207.53 234.336 207.76C235.116 207.84 235.466 208.22 235.526 208.99L235.696 211H233.926L233.806 209.29C233.766 208.7 233.466 208.5 232.716 208.5H231.536V211H229.776V203.9H233.026ZM231.536 207.06H232.736C233.446 207.06 233.836 206.76 233.836 206.2C233.836 205.64 233.446 205.34 232.736 205.34H231.536V207.06Z" fill="#1A1A1A"/>
<path d="M116.379 224.522C116.453 224.038 116.61 223.609 116.852 223.235C117.094 222.854 117.413 222.557 117.809 222.344C118.213 222.124 118.667 222.014 119.173 222.014C119.643 222.014 120.064 222.113 120.438 222.311C120.812 222.502 121.106 222.766 121.318 223.103C121.538 223.44 121.648 223.818 121.648 224.236C121.648 224.595 121.56 224.929 121.384 225.237C121.208 225.538 120.97 225.82 120.669 226.084C120.376 226.341 120.009 226.601 119.569 226.865C119.459 226.931 119.353 227.001 119.25 227.074C118.774 227.389 118.345 227.73 117.963 228.097C117.589 228.456 117.395 228.79 117.38 229.098H121.714V230H116.236C116.236 229.355 116.361 228.801 116.61 228.339C116.86 227.87 117.16 227.488 117.512 227.195C117.864 226.894 118.326 226.564 118.898 226.205C119.016 226.124 119.129 226.055 119.239 225.996C119.32 225.937 119.412 225.875 119.514 225.809C119.888 225.552 120.174 225.292 120.372 225.028C120.578 224.764 120.68 224.5 120.68 224.236C120.68 223.979 120.614 223.752 120.482 223.554C120.358 223.356 120.182 223.202 119.954 223.092C119.727 222.975 119.467 222.916 119.173 222.916C118.689 222.916 118.29 223.063 117.974 223.356C117.659 223.642 117.45 224.053 117.347 224.588L116.379 224.522ZM125.88 230.176C125.249 230.176 124.703 230.011 124.241 229.681C123.779 229.351 123.42 228.882 123.163 228.273C122.914 227.657 122.789 226.935 122.789 226.106C122.789 225.27 122.914 224.544 123.163 223.928C123.42 223.312 123.779 222.839 124.241 222.509C124.703 222.179 125.249 222.014 125.88 222.014C126.511 222.014 127.057 222.179 127.519 222.509C127.981 222.839 128.337 223.312 128.586 223.928C128.843 224.544 128.971 225.27 128.971 226.106C128.971 226.935 128.843 227.657 128.586 228.273C128.337 228.882 127.981 229.351 127.519 229.681C127.057 230.011 126.511 230.176 125.88 230.176ZM125.88 229.274C126.335 229.274 126.72 229.153 127.035 228.911C127.35 228.662 127.589 228.302 127.75 227.833C127.919 227.356 128.003 226.781 128.003 226.106C128.003 225.431 127.919 224.856 127.75 224.379C127.589 223.902 127.35 223.539 127.035 223.29C126.72 223.041 126.335 222.916 125.88 222.916C125.425 222.916 125.04 223.041 124.725 223.29C124.41 223.539 124.168 223.902 123.999 224.379C123.838 224.856 123.757 225.431 123.757 226.106C123.757 226.781 123.838 227.356 123.999 227.833C124.168 228.302 124.41 228.662 124.725 228.911C125.04 229.153 125.425 229.274 125.88 229.274ZM139.478 227.536C139.331 228.335 138.986 228.977 138.444 229.461C137.901 229.938 137.197 230.176 136.332 230.176C135.598 230.176 134.968 230 134.44 229.648C133.912 229.289 133.505 228.801 133.219 228.185C132.94 227.569 132.801 226.876 132.801 226.106C132.801 225.336 132.94 224.639 133.219 224.016C133.497 223.393 133.901 222.905 134.429 222.553C134.964 222.194 135.598 222.014 136.332 222.014C137.131 222.014 137.798 222.241 138.334 222.696C138.876 223.143 139.236 223.737 139.412 224.478L138.444 224.544C138.312 224.045 138.062 223.649 137.696 223.356C137.336 223.063 136.882 222.916 136.332 222.916C135.76 222.916 135.279 223.059 134.891 223.345C134.509 223.631 134.227 224.016 134.044 224.5C133.86 224.977 133.769 225.512 133.769 226.106C133.769 226.7 133.86 227.235 134.044 227.712C134.227 228.181 134.513 228.559 134.902 228.845C135.29 229.131 135.767 229.274 136.332 229.274C136.911 229.274 137.384 229.113 137.751 228.79C138.125 228.46 138.37 228.02 138.488 227.47L139.478 227.536ZM141.691 224.17L141.735 225.71L141.647 225.622C141.72 225.116 141.874 224.749 142.109 224.522C142.344 224.287 142.681 224.17 143.121 224.17H143.682V224.973H143.121C142.828 224.973 142.582 225.032 142.384 225.149C142.186 225.266 142.039 225.442 141.944 225.677C141.849 225.904 141.801 226.187 141.801 226.524V230H140.899V224.17H141.691ZM144.273 227.085C144.273 226.469 144.383 225.934 144.603 225.479C144.823 225.017 145.131 224.661 145.527 224.412C145.93 224.163 146.4 224.038 146.935 224.038C147.39 224.038 147.8 224.141 148.167 224.346C148.541 224.551 148.842 224.874 149.069 225.314C149.304 225.754 149.436 226.304 149.465 226.964L149.476 227.371H145.23C145.274 227.972 145.443 228.442 145.736 228.779C146.037 229.109 146.436 229.274 146.935 229.274C147.258 229.274 147.551 229.186 147.815 229.01C148.079 228.834 148.277 228.592 148.409 228.284L149.377 228.35C149.208 228.893 148.9 229.325 148.453 229.648C148.006 229.971 147.5 230.132 146.935 230.132C146.4 230.132 145.93 230.007 145.527 229.758C145.131 229.509 144.823 229.157 144.603 228.702C144.383 228.24 144.273 227.701 144.273 227.085ZM148.486 226.568C148.405 225.989 148.226 225.567 147.947 225.303C147.668 225.032 147.331 224.896 146.935 224.896C146.466 224.896 146.088 225.043 145.802 225.336C145.516 225.622 145.333 226.033 145.252 226.568H148.486ZM154.771 222.19H155.673V230H154.859L154.826 229.142C154.658 229.457 154.416 229.703 154.1 229.879C153.785 230.048 153.407 230.132 152.967 230.132C152.432 230.132 151.977 229.996 151.603 229.725C151.237 229.446 150.962 229.076 150.778 228.614C150.595 228.152 150.503 227.642 150.503 227.085C150.503 226.528 150.595 226.022 150.778 225.567C150.962 225.105 151.237 224.735 151.603 224.456C151.977 224.177 152.432 224.038 152.967 224.038C153.393 224.038 153.756 224.119 154.056 224.28C154.364 224.441 154.603 224.669 154.771 224.962V222.19ZM154.661 228.163C154.786 227.833 154.848 227.474 154.848 227.085C154.848 226.682 154.786 226.315 154.661 225.985C154.544 225.648 154.357 225.376 154.1 225.171C153.851 224.966 153.536 224.863 153.154 224.863C152.582 224.863 152.153 225.076 151.867 225.501C151.589 225.919 151.449 226.447 151.449 227.085C151.449 227.701 151.589 228.222 151.867 228.647C152.153 229.065 152.582 229.274 153.154 229.274C153.536 229.274 153.851 229.171 154.1 228.966C154.357 228.761 154.544 228.493 154.661 228.163ZM158.279 224.17V230H157.377V224.17H158.279ZM158.301 222.212V223.257H157.355V222.212H158.301ZM161.193 222.85V228.46C161.193 228.709 161.252 228.896 161.369 229.021C161.494 229.138 161.67 229.197 161.897 229.197H162.733V230H161.897C161.384 230 160.988 229.868 160.709 229.604C160.431 229.333 160.291 228.951 160.291 228.46V222.85H161.193ZM162.744 224.17V224.973H159.433V224.17H162.744ZM167.187 225.963C167.121 225.64 166.949 225.384 166.67 225.193C166.392 224.995 166.08 224.896 165.735 224.896C165.398 224.896 165.116 224.98 164.888 225.149C164.661 225.31 164.547 225.527 164.547 225.798C164.555 226.062 164.687 226.267 164.943 226.414C165.207 226.553 165.545 226.667 165.955 226.755C166.454 226.85 166.865 226.964 167.187 227.096C167.517 227.221 167.774 227.397 167.957 227.624C168.148 227.851 168.243 228.148 168.243 228.515C168.243 228.874 168.133 229.175 167.913 229.417C167.701 229.659 167.422 229.839 167.077 229.956C166.733 230.073 166.366 230.132 165.977 230.132C165.515 230.132 165.097 230.051 164.723 229.89C164.357 229.729 164.06 229.501 163.832 229.208C163.612 228.907 163.488 228.563 163.458 228.174L164.404 228.108C164.448 228.343 164.536 228.548 164.668 228.724C164.8 228.9 164.976 229.036 165.196 229.131C165.424 229.226 165.684 229.274 165.977 229.274C166.329 229.274 166.637 229.212 166.901 229.087C167.165 228.955 167.297 228.75 167.297 228.471C167.297 228.273 167.239 228.119 167.121 228.009C167.011 227.899 166.876 227.818 166.714 227.767C166.56 227.708 166.344 227.65 166.065 227.591C165.999 227.576 165.908 227.554 165.79 227.525C165.336 227.422 164.958 227.312 164.657 227.195C164.357 227.078 164.107 226.913 163.909 226.7C163.711 226.48 163.612 226.198 163.612 225.853C163.605 225.486 163.693 225.167 163.876 224.896C164.067 224.625 164.331 224.416 164.668 224.269C165.006 224.115 165.394 224.038 165.834 224.038C166.421 224.038 166.927 224.21 167.352 224.555C167.778 224.892 168.038 225.34 168.133 225.897L167.187 225.963ZM169.831 231.683H169.303L169.721 230H170.447L169.831 231.683ZM170.447 228.823V230H169.292V228.823H170.447ZM177.676 222.19C178.218 222.19 178.688 222.285 179.084 222.476C179.487 222.667 179.795 222.942 180.008 223.301C180.228 223.653 180.338 224.067 180.338 224.544C180.338 224.889 180.257 225.2 180.096 225.479C179.942 225.758 179.736 225.981 179.48 226.15C179.223 226.311 178.959 226.399 178.688 226.414L178.358 226.315C178.974 226.315 179.421 226.421 179.7 226.634C179.978 226.839 180.143 227.195 180.195 227.701L180.404 230H179.469L179.282 227.789C179.252 227.444 179.106 227.202 178.842 227.063C178.585 226.916 178.167 226.843 177.588 226.843H175.652V230H174.728V222.19H177.676ZM177.676 225.941C178.218 225.941 178.636 225.82 178.93 225.578C179.223 225.336 179.37 224.984 179.37 224.522C179.37 224.067 179.223 223.715 178.93 223.466C178.636 223.217 178.218 223.092 177.676 223.092H175.652V225.941H177.676ZM181.441 227.085C181.441 226.469 181.551 225.934 181.771 225.479C181.991 225.017 182.299 224.661 182.695 224.412C183.098 224.163 183.567 224.038 184.103 224.038C184.557 224.038 184.968 224.141 185.335 224.346C185.709 224.551 186.009 224.874 186.237 225.314C186.471 225.754 186.603 226.304 186.633 226.964L186.644 227.371H182.398C182.442 227.972 182.61 228.442 182.904 228.779C183.204 229.109 183.604 229.274 184.103 229.274C184.425 229.274 184.719 229.186 184.983 229.01C185.247 228.834 185.445 228.592 185.577 228.284L186.545 228.35C186.376 228.893 186.068 229.325 185.621 229.648C185.173 229.971 184.667 230.132 184.103 230.132C183.567 230.132 183.098 230.007 182.695 229.758C182.299 229.509 181.991 229.157 181.771 228.702C181.551 228.24 181.441 227.701 181.441 227.085ZM185.654 226.568C185.573 225.989 185.393 225.567 185.115 225.303C184.836 225.032 184.499 224.896 184.103 224.896C183.633 224.896 183.256 225.043 182.97 225.336C182.684 225.622 182.5 226.033 182.42 226.568H185.654ZM188.861 224.17L188.905 225.666L188.784 225.545C188.879 225.046 189.099 224.672 189.444 224.423C189.788 224.166 190.203 224.038 190.687 224.038C191.325 224.038 191.812 224.243 192.15 224.654C192.487 225.065 192.656 225.596 192.656 226.249V230H191.754V226.513C191.754 226.146 191.71 225.842 191.622 225.6C191.534 225.351 191.398 225.164 191.215 225.039C191.031 224.907 190.793 224.841 190.5 224.841C190.016 224.841 189.634 224.988 189.356 225.281C189.077 225.567 188.938 225.978 188.938 226.513V230H188.036V224.17H188.861ZM193.88 227.085C193.88 226.469 193.99 225.934 194.21 225.479C194.43 225.017 194.738 224.661 195.134 224.412C195.538 224.163 196.007 224.038 196.542 224.038C196.997 224.038 197.408 224.141 197.774 224.346C198.148 224.551 198.449 224.874 198.676 225.314C198.911 225.754 199.043 226.304 199.072 226.964L199.083 227.371H194.837C194.881 227.972 195.05 228.442 195.343 228.779C195.644 229.109 196.044 229.274 196.542 229.274C196.865 229.274 197.158 229.186 197.422 229.01C197.686 228.834 197.884 228.592 198.016 228.284L198.984 228.35C198.816 228.893 198.508 229.325 198.06 229.648C197.613 229.971 197.107 230.132 196.542 230.132C196.007 230.132 195.538 230.007 195.134 229.758C194.738 229.509 194.43 229.157 194.21 228.702C193.99 228.24 193.88 227.701 193.88 227.085ZM198.093 226.568C198.013 225.989 197.833 225.567 197.554 225.303C197.276 225.032 196.938 224.896 196.542 224.896C196.073 224.896 195.695 225.043 195.409 225.336C195.123 225.622 194.94 226.033 194.859 226.568H198.093ZM205.683 228.999L207.091 224.17H208.059L206.255 230H205.122L203.813 225.534L202.493 230H201.36L199.556 224.17H200.524L201.932 228.999L203.329 224.17H204.286L205.683 228.999ZM212.272 225.963C212.206 225.64 212.034 225.384 211.755 225.193C211.477 224.995 211.165 224.896 210.82 224.896C210.483 224.896 210.201 224.98 209.973 225.149C209.746 225.31 209.632 225.527 209.632 225.798C209.64 226.062 209.772 226.267 210.028 226.414C210.292 226.553 210.63 226.667 211.04 226.755C211.539 226.85 211.95 226.964 212.272 227.096C212.602 227.221 212.859 227.397 213.042 227.624C213.233 227.851 213.328 228.148 213.328 228.515C213.328 228.874 213.218 229.175 212.998 229.417C212.786 229.659 212.507 229.839 212.162 229.956C211.818 230.073 211.451 230.132 211.062 230.132C210.6 230.132 210.182 230.051 209.808 229.89C209.442 229.729 209.145 229.501 208.917 229.208C208.697 228.907 208.573 228.563 208.543 228.174L209.489 228.108C209.533 228.343 209.621 228.548 209.753 228.724C209.885 228.9 210.061 229.036 210.281 229.131C210.509 229.226 210.769 229.274 211.062 229.274C211.414 229.274 211.722 229.212 211.986 229.087C212.25 228.955 212.382 228.75 212.382 228.471C212.382 228.273 212.324 228.119 212.206 228.009C212.096 227.899 211.961 227.818 211.799 227.767C211.645 227.708 211.429 227.65 211.15 227.591C211.084 227.576 210.993 227.554 210.875 227.525C210.421 227.422 210.043 227.312 209.742 227.195C209.442 227.078 209.192 226.913 208.994 226.7C208.796 226.48 208.697 226.198 208.697 225.853C208.69 225.486 208.778 225.167 208.961 224.896C209.152 224.625 209.416 224.416 209.753 224.269C210.091 224.115 210.479 224.038 210.919 224.038C211.506 224.038 212.012 224.21 212.437 224.555C212.863 224.892 213.123 225.34 213.218 225.897L212.272 225.963ZM220.02 222.19C221.222 222.19 222.146 222.531 222.792 223.213C223.444 223.888 223.771 224.852 223.771 226.106C223.771 227.353 223.452 228.313 222.814 228.988C222.183 229.663 221.274 230 220.086 230H217.611V222.19H220.02ZM220.02 229.098C220.944 229.098 221.637 228.849 222.099 228.35C222.568 227.851 222.803 227.103 222.803 226.106C222.803 225.101 222.568 224.35 222.099 223.851C221.637 223.345 220.944 223.092 220.02 223.092H218.535V229.098H220.02ZM224.928 225.886C225.045 225.321 225.313 224.874 225.731 224.544C226.156 224.207 226.68 224.038 227.304 224.038C228.059 224.038 228.638 224.251 229.042 224.676C229.445 225.094 229.647 225.695 229.647 226.48V228.823C229.647 228.948 229.676 229.043 229.735 229.109C229.793 229.168 229.885 229.197 230.01 229.197H230.241V230H229.856H229.801C229.595 229.993 229.416 229.963 229.262 229.912C229.108 229.853 228.983 229.758 228.888 229.626C228.792 229.487 228.748 229.307 228.756 229.087C228.616 229.38 228.385 229.63 228.063 229.835C227.74 230.033 227.359 230.132 226.919 230.132C226.317 230.132 225.819 229.982 225.423 229.681C225.027 229.38 224.829 228.981 224.829 228.482C224.829 228.101 224.917 227.796 225.093 227.569C225.269 227.342 225.511 227.169 225.819 227.052C226.127 226.927 226.526 226.817 227.018 226.722L228.734 226.392C228.734 225.886 228.613 225.512 228.371 225.27C228.136 225.021 227.78 224.896 227.304 224.896C226.937 224.896 226.629 224.988 226.38 225.171C226.138 225.354 225.973 225.618 225.885 225.963L224.928 225.886ZM225.775 228.482C225.775 228.731 225.881 228.937 226.094 229.098C226.314 229.259 226.629 229.336 227.04 229.329C227.37 229.329 227.663 229.252 227.92 229.098C228.184 228.944 228.389 228.717 228.536 228.416C228.69 228.108 228.767 227.734 228.767 227.294L228.756 227.195L227.37 227.437L227.15 227.47C226.827 227.529 226.574 227.587 226.391 227.646C226.207 227.697 226.057 227.789 225.94 227.921C225.83 228.053 225.775 228.24 225.775 228.482ZM232.379 224.17V230H231.477V224.17H232.379ZM232.401 222.212V223.257H231.455V222.212H232.401ZM235.172 222.19V228.834C235.172 228.959 235.202 229.05 235.26 229.109C235.326 229.168 235.422 229.197 235.546 229.197H236.041V230H235.414C235.07 230 234.791 229.897 234.578 229.692C234.373 229.479 234.27 229.208 234.27 228.878V222.19H235.172ZM237.424 224.17L239.195 229.032L240.9 224.17H241.857L239.492 230.737C239.382 231.052 239.221 231.283 239.008 231.43C238.795 231.577 238.524 231.65 238.194 231.65H237.501V230.847H238.106C238.253 230.847 238.374 230.814 238.469 230.748C238.564 230.682 238.638 230.576 238.689 230.429L238.898 229.89H238.59L236.456 224.17H237.424ZM243.784 228.823V230H242.618V228.823H243.784Z" fill="#1A1A1A"/>
<rect x="20" y="306" width="320" height="82" rx="4" fill="#F1F1F1"/>
<path d="M46.23 326.9V328.34H44.13V334H42.37V328.34H40.28V326.9H46.23ZM50.4437 326.9C51.9037 326.9 53.0537 327.64 53.0537 329.03C53.0537 329.94 52.5537 330.53 51.7537 330.76C52.5337 330.84 52.8837 331.22 52.9437 331.99L53.1137 334H51.3437L51.2237 332.29C51.1837 331.7 50.8837 331.5 50.1337 331.5H48.9537V334H47.1937V326.9H50.4437ZM48.9537 330.06H50.1537C50.8637 330.06 51.2537 329.76 51.2537 329.2C51.2537 328.64 50.8637 328.34 50.1537 328.34H48.9537V330.06ZM53.8342 334L56.3942 326.9H58.3042L60.8642 334H59.1242L58.6642 332.67H56.0242L55.5742 334H53.8342ZM56.5042 331.27H58.1942L57.3542 328.79L56.5042 331.27ZM61.803 326.9H63.563V334H61.803V326.9ZM64.9085 326.9H66.7485L69.3085 331.34V326.9H71.0685V334H69.1685L66.6685 329.75V334H64.9085V326.9ZM74.2151 334L76.7751 326.9H78.6851L81.2451 334H79.5051L79.0451 332.67H76.4051L75.9551 334H74.2151ZM76.8851 331.27H78.5751L77.7351 328.79L76.8851 331.27ZM82.1839 326.9H83.9439V334H82.1839V326.9Z" fill="#1A1A1A"/>
<path d="M41.331 345.19L43.465 348.831L45.588 345.19H46.677L43.927 349.81V353H43.003V349.81L40.231 345.19H41.331ZM49.5384 353.132C49.003 353.132 48.5337 353.007 48.1304 352.758C47.7344 352.509 47.4264 352.157 47.2064 351.702C46.9864 351.24 46.8764 350.701 46.8764 350.085C46.8764 349.469 46.9864 348.934 47.2064 348.479C47.4264 348.017 47.7344 347.661 48.1304 347.412C48.5337 347.163 49.003 347.038 49.5384 347.038C50.0737 347.038 50.5394 347.163 50.9354 347.412C51.3387 347.661 51.6504 348.017 51.8704 348.479C52.0904 348.934 52.2004 349.469 52.2004 350.085C52.2004 350.701 52.0904 351.24 51.8704 351.702C51.6504 352.157 51.3387 352.509 50.9354 352.758C50.5394 353.007 50.0737 353.132 49.5384 353.132ZM49.5384 352.274C50.081 352.274 50.5027 352.083 50.8034 351.702C51.104 351.313 51.2544 350.774 51.2544 350.085C51.2544 349.396 51.104 348.86 50.8034 348.479C50.5027 348.09 50.081 347.896 49.5384 347.896C48.9957 347.896 48.574 348.09 48.2734 348.479C47.9727 348.86 47.8224 349.396 47.8224 350.085C47.8224 350.774 47.9727 351.313 48.2734 351.702C48.574 352.083 48.9957 352.274 49.5384 352.274ZM57.2643 353V351.548L57.3633 351.669C57.268 352.153 57.048 352.52 56.7033 352.769C56.366 353.011 55.9663 353.132 55.5043 353.132C54.881 353.132 54.4007 352.927 54.0633 352.516C53.7333 352.098 53.5683 351.566 53.5683 350.921V347.17H54.4703V350.646C54.4703 351.02 54.5143 351.332 54.6023 351.581C54.6903 351.823 54.8223 352.01 54.9983 352.142C55.1743 352.267 55.4053 352.329 55.6913 352.329C56.1607 352.329 56.531 352.182 56.8023 351.889C57.081 351.596 57.2203 351.181 57.2203 350.646V347.17H58.1223V353H57.2643ZM66.4596 349.117C66.401 348.743 66.2323 348.446 65.9536 348.226C65.675 348.006 65.3523 347.896 64.9856 347.896C64.443 347.896 64.0213 348.09 63.7206 348.479C63.42 348.86 63.2696 349.396 63.2696 350.085C63.2696 350.774 63.42 351.313 63.7206 351.702C64.0213 352.083 64.443 352.274 64.9856 352.274C65.367 352.274 65.697 352.157 65.9756 351.922C66.2616 351.68 66.4376 351.354 66.5036 350.943L67.4606 350.998C67.402 351.431 67.2553 351.808 67.0206 352.131C66.786 352.454 66.489 352.703 66.1296 352.879C65.7776 353.048 65.3963 353.132 64.9856 353.132C64.4503 353.132 63.981 353.007 63.5776 352.758C63.1816 352.509 62.8736 352.157 62.6536 351.702C62.4336 351.24 62.3236 350.701 62.3236 350.085C62.3236 349.469 62.4336 348.934 62.6536 348.479C62.8736 348.017 63.1816 347.661 63.5776 347.412C63.981 347.163 64.4503 347.038 64.9856 347.038C65.3816 347.038 65.7556 347.122 66.1076 347.291C66.4596 347.452 66.7493 347.687 66.9766 347.995C67.2113 348.303 67.3543 348.659 67.4056 349.062L66.4596 349.117ZM68.5457 348.886C68.663 348.321 68.9307 347.874 69.3487 347.544C69.774 347.207 70.2984 347.038 70.9217 347.038C71.677 347.038 72.2564 347.251 72.6597 347.676C73.063 348.094 73.2647 348.695 73.2647 349.48V351.823C73.2647 351.948 73.294 352.043 73.3527 352.109C73.4114 352.168 73.503 352.197 73.6277 352.197H73.8587V353H73.4737H73.4187C73.2134 352.993 73.0337 352.963 72.8797 352.912C72.7257 352.853 72.601 352.758 72.5057 352.626C72.4104 352.487 72.3664 352.307 72.3737 352.087C72.2344 352.38 72.0034 352.63 71.6807 352.835C71.358 353.033 70.9767 353.132 70.5367 353.132C69.9354 353.132 69.4367 352.982 69.0407 352.681C68.6447 352.38 68.4467 351.981 68.4467 351.482C68.4467 351.101 68.5347 350.796 68.7107 350.569C68.8867 350.342 69.1287 350.169 69.4367 350.052C69.7447 349.927 70.1444 349.817 70.6357 349.722L72.3517 349.392C72.3517 348.886 72.2307 348.512 71.9887 348.27C71.754 348.021 71.3984 347.896 70.9217 347.896C70.555 347.896 70.247 347.988 69.9977 348.171C69.7557 348.354 69.5907 348.618 69.5027 348.963L68.5457 348.886ZM69.3927 351.482C69.3927 351.731 69.499 351.937 69.7117 352.098C69.9317 352.259 70.247 352.336 70.6577 352.329C70.9877 352.329 71.281 352.252 71.5377 352.098C71.8017 351.944 72.007 351.717 72.1537 351.416C72.3077 351.108 72.3847 350.734 72.3847 350.294L72.3737 350.195L70.9877 350.437L70.7677 350.47C70.445 350.529 70.192 350.587 70.0087 350.646C69.8254 350.697 69.675 350.789 69.5577 350.921C69.4477 351.053 69.3927 351.24 69.3927 351.482ZM75.9202 347.17L75.9642 348.666L75.8432 348.545C75.9385 348.046 76.1585 347.672 76.5032 347.423C76.8478 347.166 77.2622 347.038 77.7462 347.038C78.3842 347.038 78.8718 347.243 79.2092 347.654C79.5465 348.065 79.7152 348.596 79.7152 349.249V353H78.8132V349.513C78.8132 349.146 78.7692 348.842 78.6812 348.6C78.5932 348.351 78.4575 348.164 78.2742 348.039C78.0908 347.907 77.8525 347.841 77.5592 347.841C77.0752 347.841 76.6938 347.988 76.4152 348.281C76.1365 348.567 75.9972 348.978 75.9972 349.513V353H75.0952V347.17H75.9202ZM85.754 345.85V351.46C85.754 351.709 85.8127 351.896 85.93 352.021C86.0547 352.138 86.2307 352.197 86.458 352.197H87.294V353H86.458C85.9447 353 85.5487 352.868 85.27 352.604C84.9913 352.333 84.852 351.951 84.852 351.46V345.85H85.754ZM87.305 347.17V347.973H83.994V347.17H87.305ZM89.4438 347.17L89.4878 348.71L89.3998 348.622C89.4731 348.116 89.6271 347.749 89.8618 347.522C90.0965 347.287 90.4338 347.17 90.8738 347.17H91.4348V347.973H90.8738C90.5805 347.973 90.3348 348.032 90.1368 348.149C89.9388 348.266 89.7921 348.442 89.6968 348.677C89.6015 348.904 89.5538 349.187 89.5538 349.524V353H88.6518V347.17H89.4438ZM92.3504 348.886C92.4677 348.321 92.7354 347.874 93.1534 347.544C93.5787 347.207 94.103 347.038 94.7264 347.038C95.4817 347.038 96.061 347.251 96.4644 347.676C96.8677 348.094 97.0694 348.695 97.0694 349.48V351.823C97.0694 351.948 97.0987 352.043 97.1574 352.109C97.216 352.168 97.3077 352.197 97.4324 352.197H97.6634V353H97.2784H97.2234C97.018 352.993 96.8384 352.963 96.6844 352.912C96.5304 352.853 96.4057 352.758 96.3104 352.626C96.215 352.487 96.171 352.307 96.1784 352.087C96.039 352.38 95.808 352.63 95.4854 352.835C95.1627 353.033 94.7814 353.132 94.3414 353.132C93.74 353.132 93.2414 352.982 92.8454 352.681C92.4494 352.38 92.2514 351.981 92.2514 351.482C92.2514 351.101 92.3394 350.796 92.5154 350.569C92.6914 350.342 92.9334 350.169 93.2414 350.052C93.5494 349.927 93.949 349.817 94.4404 349.722L96.1564 349.392C96.1564 348.886 96.0354 348.512 95.7934 348.27C95.5587 348.021 95.203 347.896 94.7264 347.896C94.3597 347.896 94.0517 347.988 93.8024 348.171C93.5604 348.354 93.3954 348.618 93.3074 348.963L92.3504 348.886ZM93.1974 351.482C93.1974 351.731 93.3037 351.937 93.5164 352.098C93.7364 352.259 94.0517 352.336 94.4624 352.329C94.7924 352.329 95.0857 352.252 95.3424 352.098C95.6064 351.944 95.8117 351.717 95.9584 351.416C96.1124 351.108 96.1894 350.734 96.1894 350.294L96.1784 350.195L94.7924 350.437L94.5724 350.47C94.2497 350.529 93.9967 350.587 93.8134 350.646C93.63 350.697 93.4797 350.789 93.3624 350.921C93.2524 351.053 93.1974 351.24 93.1974 351.482ZM99.8018 347.17V353H98.8998V347.17H99.8018ZM99.8238 345.212V346.257H98.8778V345.212H99.8238ZM102.335 347.17L102.379 348.666L102.258 348.545C102.354 348.046 102.574 347.672 102.918 347.423C103.263 347.166 103.677 347.038 104.161 347.038C104.799 347.038 105.287 347.243 105.624 347.654C105.962 348.065 106.13 348.596 106.13 349.249V353H105.228V349.513C105.228 349.146 105.184 348.842 105.096 348.6C105.008 348.351 104.873 348.164 104.689 348.039C104.506 347.907 104.268 347.841 103.974 347.841C103.49 347.841 103.109 347.988 102.83 348.281C102.552 348.567 102.412 348.978 102.412 349.513V353H101.51V347.17H102.335ZM112.169 345.85V351.46C112.169 351.709 112.228 351.896 112.345 352.021C112.47 352.138 112.646 352.197 112.873 352.197H113.709V353H112.873C112.36 353 111.964 352.868 111.685 352.604C111.406 352.333 111.267 351.951 111.267 351.46V345.85H112.169ZM113.72 347.17V347.973H110.409V347.17H113.72ZM115.969 345.19V348.468L115.837 348.314C115.954 347.896 116.185 347.581 116.53 347.368C116.875 347.148 117.271 347.038 117.718 347.038C118.356 347.038 118.844 347.243 119.181 347.654C119.518 348.065 119.687 348.596 119.687 349.249V353H118.785V349.579C118.785 349.212 118.741 348.904 118.653 348.655C118.565 348.406 118.429 348.219 118.246 348.094C118.063 347.962 117.824 347.896 117.531 347.896C117.047 347.896 116.666 348.043 116.387 348.336C116.108 348.629 115.969 349.044 115.969 349.579V353H115.067V345.19H115.969ZM120.912 350.085C120.912 349.469 121.022 348.934 121.242 348.479C121.462 348.017 121.77 347.661 122.166 347.412C122.569 347.163 123.038 347.038 123.574 347.038C124.028 347.038 124.439 347.141 124.806 347.346C125.18 347.551 125.48 347.874 125.708 348.314C125.942 348.754 126.074 349.304 126.104 349.964L126.115 350.371H121.869C121.913 350.972 122.081 351.442 122.375 351.779C122.675 352.109 123.075 352.274 123.574 352.274C123.896 352.274 124.19 352.186 124.454 352.01C124.718 351.834 124.916 351.592 125.048 351.284L126.016 351.35C125.847 351.893 125.539 352.325 125.092 352.648C124.644 352.971 124.138 353.132 123.574 353.132C123.038 353.132 122.569 353.007 122.166 352.758C121.77 352.509 121.462 352.157 121.242 351.702C121.022 351.24 120.912 350.701 120.912 350.085ZM125.125 349.568C125.044 348.989 124.864 348.567 124.586 348.303C124.307 348.032 123.97 347.896 123.574 347.896C123.104 347.896 122.727 348.043 122.441 348.336C122.155 348.622 121.971 349.033 121.891 349.568H125.125ZM132.433 345.19H133.665L136.492 353H135.48L134.699 350.767H131.399L130.618 353H129.606L132.433 345.19ZM134.38 349.865L133.049 346.004L131.718 349.865H134.38ZM138.659 345.19V353H137.735V345.19H138.659ZM144.847 345.85V351.46C144.847 351.709 144.905 351.896 145.023 352.021C145.147 352.138 145.323 352.197 145.551 352.197H146.387V353H145.551C145.037 353 144.641 352.868 144.363 352.604C144.084 352.333 143.945 351.951 143.945 351.46V345.85H144.847ZM146.398 347.17V347.973H143.087V347.17H146.398ZM149.774 353.132C149.238 353.132 148.769 353.007 148.366 352.758C147.97 352.509 147.662 352.157 147.442 351.702C147.222 351.24 147.112 350.701 147.112 350.085C147.112 349.469 147.222 348.934 147.442 348.479C147.662 348.017 147.97 347.661 148.366 347.412C148.769 347.163 149.238 347.038 149.774 347.038C150.309 347.038 150.775 347.163 151.171 347.412C151.574 347.661 151.886 348.017 152.106 348.479C152.326 348.934 152.436 349.469 152.436 350.085C152.436 350.701 152.326 351.24 152.106 351.702C151.886 352.157 151.574 352.509 151.171 352.758C150.775 353.007 150.309 353.132 149.774 353.132ZM149.774 352.274C150.316 352.274 150.738 352.083 151.039 351.702C151.339 351.313 151.49 350.774 151.49 350.085C151.49 349.396 151.339 348.86 151.039 348.479C150.738 348.09 150.316 347.896 149.774 347.896C149.231 347.896 148.809 348.09 148.509 348.479C148.208 348.86 148.058 349.396 148.058 350.085C148.058 350.774 148.208 351.313 148.509 351.702C148.809 352.083 149.231 352.274 149.774 352.274ZM157.211 346.785C157.211 346.286 157.339 345.898 157.596 345.619C157.86 345.333 158.252 345.19 158.773 345.19H159.653V345.993H158.762C158.571 345.993 158.414 346.063 158.289 346.202C158.172 346.341 158.113 346.532 158.113 346.774V353H157.211V346.785ZM156.419 347.17H159.587V347.973H156.419V347.17ZM162.965 353.132C162.43 353.132 161.96 353.007 161.557 352.758C161.161 352.509 160.853 352.157 160.633 351.702C160.413 351.24 160.303 350.701 160.303 350.085C160.303 349.469 160.413 348.934 160.633 348.479C160.853 348.017 161.161 347.661 161.557 347.412C161.96 347.163 162.43 347.038 162.965 347.038C163.5 347.038 163.966 347.163 164.362 347.412C164.765 347.661 165.077 348.017 165.297 348.479C165.517 348.934 165.627 349.469 165.627 350.085C165.627 350.701 165.517 351.24 165.297 351.702C165.077 352.157 164.765 352.509 164.362 352.758C163.966 353.007 163.5 353.132 162.965 353.132ZM162.965 352.274C163.508 352.274 163.929 352.083 164.23 351.702C164.531 351.313 164.681 350.774 164.681 350.085C164.681 349.396 164.531 348.86 164.23 348.479C163.929 348.09 163.508 347.896 162.965 347.896C162.422 347.896 162.001 348.09 161.7 348.479C161.399 348.86 161.249 349.396 161.249 350.085C161.249 350.774 161.399 351.313 161.7 351.702C162.001 352.083 162.422 352.274 162.965 352.274ZM168.005 345.19V351.834C168.005 351.959 168.034 352.05 168.093 352.109C168.159 352.168 168.254 352.197 168.379 352.197H168.874V353H168.247C167.902 353 167.623 352.897 167.411 352.692C167.205 352.479 167.103 352.208 167.103 351.878V345.19H168.005ZM171.173 345.19V351.834C171.173 351.959 171.203 352.05 171.261 352.109C171.327 352.168 171.423 352.197 171.547 352.197H172.042V353H171.415C171.071 353 170.792 352.897 170.579 352.692C170.374 352.479 170.271 352.208 170.271 351.878V345.19H171.173ZM175.555 353.132C175.02 353.132 174.55 353.007 174.147 352.758C173.751 352.509 173.443 352.157 173.223 351.702C173.003 351.24 172.893 350.701 172.893 350.085C172.893 349.469 173.003 348.934 173.223 348.479C173.443 348.017 173.751 347.661 174.147 347.412C174.55 347.163 175.02 347.038 175.555 347.038C176.09 347.038 176.556 347.163 176.952 347.412C177.355 347.661 177.667 348.017 177.887 348.479C178.107 348.934 178.217 349.469 178.217 350.085C178.217 350.701 178.107 351.24 177.887 351.702C177.667 352.157 177.355 352.509 176.952 352.758C176.556 353.007 176.09 353.132 175.555 353.132ZM175.555 352.274C176.098 352.274 176.519 352.083 176.82 351.702C177.121 351.313 177.271 350.774 177.271 350.085C177.271 349.396 177.121 348.86 176.82 348.479C176.519 348.09 176.098 347.896 175.555 347.896C175.012 347.896 174.591 348.09 174.29 348.479C173.989 348.86 173.839 349.396 173.839 350.085C173.839 350.774 173.989 351.313 174.29 351.702C174.591 352.083 175.012 352.274 175.555 352.274ZM184.825 351.999L186.233 347.17H187.201L185.397 353H184.264L182.955 348.534L181.635 353H180.502L178.698 347.17H179.666L181.074 351.999L182.471 347.17H183.428L184.825 351.999ZM41.21 362.17L42.981 367.032L44.686 362.17H45.643L43.278 368.737C43.168 369.052 43.0067 369.283 42.794 369.43C42.5813 369.577 42.31 369.65 41.98 369.65H41.287V368.847H41.892C42.0387 368.847 42.1597 368.814 42.255 368.748C42.3503 368.682 42.4237 368.576 42.475 368.429L42.684 367.89H42.376L40.242 362.17H41.21ZM48.7864 368.132C48.2511 368.132 47.7818 368.007 47.3784 367.758C46.9824 367.509 46.6744 367.157 46.4544 366.702C46.2344 366.24 46.1244 365.701 46.1244 365.085C46.1244 364.469 46.2344 363.934 46.4544 363.479C46.6744 363.017 46.9824 362.661 47.3784 362.412C47.7818 362.163 48.2511 362.038 48.7864 362.038C49.3218 362.038 49.7874 362.163 50.1834 362.412C50.5868 362.661 50.8984 363.017 51.1184 363.479C51.3384 363.934 51.4484 364.469 51.4484 365.085C51.4484 365.701 51.3384 366.24 51.1184 366.702C50.8984 367.157 50.5868 367.509 50.1834 367.758C49.7874 368.007 49.3218 368.132 48.7864 368.132ZM48.7864 367.274C49.3291 367.274 49.7508 367.083 50.0514 366.702C50.3521 366.313 50.5024 365.774 50.5024 365.085C50.5024 364.396 50.3521 363.86 50.0514 363.479C49.7508 363.09 49.3291 362.896 48.7864 362.896C48.2438 362.896 47.8221 363.09 47.5214 363.479C47.2208 363.86 47.0704 364.396 47.0704 365.085C47.0704 365.774 47.2208 366.313 47.5214 366.702C47.8221 367.083 48.2438 367.274 48.7864 367.274ZM56.5124 368V366.548L56.6114 366.669C56.516 367.153 56.296 367.52 55.9514 367.769C55.614 368.011 55.2144 368.132 54.7524 368.132C54.129 368.132 53.6487 367.927 53.3114 367.516C52.9814 367.098 52.8164 366.566 52.8164 365.921V362.17H53.7184V365.646C53.7184 366.02 53.7624 366.332 53.8504 366.581C53.9384 366.823 54.0704 367.01 54.2464 367.142C54.4224 367.267 54.6534 367.329 54.9394 367.329C55.4087 367.329 55.779 367.182 56.0504 366.889C56.329 366.596 56.4684 366.181 56.4684 365.646V362.17H57.3704V368H56.5124ZM60.0317 362.17L60.0757 363.71L59.9877 363.622C60.061 363.116 60.215 362.749 60.4497 362.522C60.6844 362.287 61.0217 362.17 61.4617 362.17H62.0227V362.973H61.4617C61.1684 362.973 60.9227 363.032 60.7247 363.149C60.5267 363.266 60.38 363.442 60.2847 363.677C60.1894 363.904 60.1417 364.187 60.1417 364.524V368H59.2397V362.17H60.0317ZM67.1241 360.19V362.962C67.2928 362.669 67.5274 362.441 67.8281 362.28C68.1361 362.119 68.5028 362.038 68.9281 362.038C69.4634 362.038 69.9144 362.177 70.2811 362.456C70.6551 362.735 70.9338 363.105 71.1171 363.567C71.3004 364.022 71.3921 364.528 71.3921 365.085C71.3921 365.642 71.3004 366.152 71.1171 366.614C70.9338 367.076 70.6551 367.446 70.2811 367.725C69.9144 367.996 69.4634 368.132 68.9281 368.132C68.4881 368.132 68.1104 368.048 67.7951 367.879C67.4798 367.703 67.2378 367.457 67.0691 367.142L67.0361 368H66.2221V360.19H67.1241ZM67.0471 365.085C67.0471 365.474 67.1058 365.833 67.2231 366.163C67.3478 366.493 67.5348 366.761 67.7841 366.966C68.0408 367.171 68.3598 367.274 68.7411 367.274C69.3131 367.274 69.7384 367.065 70.0171 366.647C70.3031 366.222 70.4461 365.701 70.4461 365.085C70.4461 364.447 70.3031 363.919 70.0171 363.501C69.7384 363.076 69.3131 362.863 68.7411 362.863C68.3598 362.863 68.0408 362.966 67.7841 363.171C67.5348 363.376 67.3478 363.648 67.2231 363.985C67.1058 364.315 67.0471 364.682 67.0471 365.085ZM73.5776 362.17L73.6216 363.71L73.5336 363.622C73.6069 363.116 73.7609 362.749 73.9956 362.522C74.2303 362.287 74.5676 362.17 75.0076 362.17H75.5686V362.973H75.0076C74.7143 362.973 74.4686 363.032 74.2706 363.149C74.0726 363.266 73.9259 363.442 73.8306 363.677C73.7353 363.904 73.6876 364.187 73.6876 364.524V368H72.7856V362.17H73.5776ZM76.4842 363.886C76.6015 363.321 76.8692 362.874 77.2872 362.544C77.7125 362.207 78.2368 362.038 78.8602 362.038C79.6155 362.038 80.1948 362.251 80.5982 362.676C81.0015 363.094 81.2032 363.695 81.2032 364.48V366.823C81.2032 366.948 81.2325 367.043 81.2912 367.109C81.3498 367.168 81.4415 367.197 81.5662 367.197H81.7972V368H81.4122H81.3572C81.1518 367.993 80.9722 367.963 80.8182 367.912C80.6642 367.853 80.5395 367.758 80.4442 367.626C80.3488 367.487 80.3048 367.307 80.3122 367.087C80.1728 367.38 79.9418 367.63 79.6192 367.835C79.2965 368.033 78.9152 368.132 78.4752 368.132C77.8738 368.132 77.3752 367.982 76.9792 367.681C76.5832 367.38 76.3852 366.981 76.3852 366.482C76.3852 366.101 76.4732 365.796 76.6492 365.569C76.8252 365.342 77.0672 365.169 77.3752 365.052C77.6832 364.927 78.0828 364.817 78.5742 364.722L80.2902 364.392C80.2902 363.886 80.1692 363.512 79.9272 363.27C79.6925 363.021 79.3368 362.896 78.8602 362.896C78.4935 362.896 78.1855 362.988 77.9362 363.171C77.6942 363.354 77.5292 363.618 77.4412 363.963L76.4842 363.886ZM77.3312 366.482C77.3312 366.731 77.4375 366.937 77.6502 367.098C77.8702 367.259 78.1855 367.336 78.5962 367.329C78.9262 367.329 79.2195 367.252 79.4762 367.098C79.7402 366.944 79.9455 366.717 80.0922 366.416C80.2462 366.108 80.3232 365.734 80.3232 365.294L80.3122 365.195L78.9262 365.437L78.7062 365.47C78.3835 365.529 78.1305 365.587 77.9472 365.646C77.7638 365.697 77.6135 365.789 77.4962 365.921C77.3862 366.053 77.3312 366.24 77.3312 366.482ZM83.8586 362.17L83.9026 363.666L83.7816 363.545C83.877 363.046 84.097 362.672 84.4416 362.423C84.7863 362.166 85.2006 362.038 85.6846 362.038C86.3226 362.038 86.8103 362.243 87.1476 362.654C87.485 363.065 87.6536 363.596 87.6536 364.249V368H86.7516V364.513C86.7516 364.146 86.7076 363.842 86.6196 363.6C86.5316 363.351 86.396 363.164 86.2126 363.039C86.0293 362.907 85.791 362.841 85.4976 362.841C85.0136 362.841 84.6323 362.988 84.3536 363.281C84.075 363.567 83.9356 363.978 83.9356 364.513V368H83.0336V362.17H83.8586ZM93.1463 360.19H94.0483V368H93.2343L93.2013 367.142C93.0327 367.457 92.7907 367.703 92.4753 367.879C92.16 368.048 91.7823 368.132 91.3423 368.132C90.807 368.132 90.3523 367.996 89.9783 367.725C89.6117 367.446 89.3367 367.076 89.1533 366.614C88.97 366.152 88.8783 365.642 88.8783 365.085C88.8783 364.528 88.97 364.022 89.1533 363.567C89.3367 363.105 89.6117 362.735 89.9783 362.456C90.3523 362.177 90.807 362.038 91.3423 362.038C91.7677 362.038 92.1307 362.119 92.4313 362.28C92.7393 362.441 92.9777 362.669 93.1463 362.962V360.19ZM93.0363 366.163C93.161 365.833 93.2233 365.474 93.2233 365.085C93.2233 364.682 93.161 364.315 93.0363 363.985C92.919 363.648 92.732 363.376 92.4753 363.171C92.226 362.966 91.9107 362.863 91.5293 362.863C90.9573 362.863 90.5283 363.076 90.2423 363.501C89.9637 363.919 89.8243 364.447 89.8243 365.085C89.8243 365.701 89.9637 366.222 90.2423 366.647C90.5283 367.065 90.9573 367.274 91.5293 367.274C91.9107 367.274 92.226 367.171 92.4753 366.966C92.732 366.761 92.919 366.493 93.0363 366.163ZM100.864 367.692C100.336 367.692 99.8735 367.571 99.4775 367.329C99.0888 367.087 98.7845 366.753 98.5645 366.328C98.3518 365.895 98.2455 365.408 98.2455 364.865C98.2455 364.322 98.3555 363.838 98.5755 363.413C98.7955 362.98 99.1035 362.643 99.4995 362.401C99.8955 362.159 100.35 362.038 100.864 362.038C101.252 362.038 101.597 362.137 101.898 362.335C102.198 362.526 102.411 362.782 102.536 363.105V362.17H103.405V367.428C103.405 367.934 103.295 368.363 103.075 368.715C102.862 369.067 102.561 369.331 102.173 369.507C101.791 369.69 101.348 369.782 100.842 369.782C100.431 369.782 100.057 369.712 99.7195 369.573C99.3822 369.434 99.0998 369.236 98.8725 368.979C98.6452 368.722 98.4912 368.425 98.4105 368.088L99.3565 368.022C99.4738 368.308 99.6572 368.528 99.9065 368.682C100.163 368.843 100.475 368.924 100.842 368.924C101.362 368.924 101.769 368.81 102.063 368.583C102.356 368.363 102.503 368.044 102.503 367.626V366.658C102.327 366.988 102.088 367.245 101.788 367.428C101.494 367.604 101.186 367.692 100.864 367.692ZM99.1915 364.865C99.1915 365.246 99.2575 365.587 99.3895 365.888C99.5288 366.181 99.7232 366.412 99.9725 366.581C100.222 366.75 100.519 366.834 100.864 366.834C101.186 366.834 101.472 366.75 101.722 366.581C101.971 366.412 102.165 366.181 102.305 365.888C102.444 365.587 102.514 365.246 102.514 364.865C102.521 364.491 102.459 364.157 102.327 363.864C102.195 363.563 102 363.329 101.744 363.16C101.494 362.991 101.201 362.907 100.864 362.907C100.519 362.907 100.222 362.991 99.9725 363.16C99.7232 363.321 99.5288 363.552 99.3895 363.853C99.2575 364.146 99.1915 364.484 99.1915 364.865ZM108.988 368V366.548L109.087 366.669C108.992 367.153 108.772 367.52 108.427 367.769C108.09 368.011 107.69 368.132 107.228 368.132C106.605 368.132 106.124 367.927 105.787 367.516C105.457 367.098 105.292 366.566 105.292 365.921V362.17H106.194V365.646C106.194 366.02 106.238 366.332 106.326 366.581C106.414 366.823 106.546 367.01 106.722 367.142C106.898 367.267 107.129 367.329 107.415 367.329C107.884 367.329 108.255 367.182 108.526 366.889C108.805 366.596 108.944 366.181 108.944 365.646V362.17H109.846V368H108.988ZM112.617 362.17V368H111.715V362.17H112.617ZM112.639 360.212V361.257H111.693V360.212H112.639ZM118.337 360.19H119.239V368H118.425L118.392 367.142C118.223 367.457 117.981 367.703 117.666 367.879C117.35 368.048 116.973 368.132 116.533 368.132C115.997 368.132 115.543 367.996 115.169 367.725C114.802 367.446 114.527 367.076 114.344 366.614C114.16 366.152 114.069 365.642 114.069 365.085C114.069 364.528 114.16 364.022 114.344 363.567C114.527 363.105 114.802 362.735 115.169 362.456C115.543 362.177 115.997 362.038 116.533 362.038C116.958 362.038 117.321 362.119 117.622 362.28C117.93 362.441 118.168 362.669 118.337 362.962V360.19ZM118.227 366.163C118.351 365.833 118.414 365.474 118.414 365.085C118.414 364.682 118.351 364.315 118.227 363.985C118.109 363.648 117.922 363.376 117.666 363.171C117.416 362.966 117.101 362.863 116.72 362.863C116.148 362.863 115.719 363.076 115.433 363.501C115.154 363.919 115.015 364.447 115.015 365.085C115.015 365.701 115.154 366.222 115.433 366.647C115.719 367.065 116.148 367.274 116.72 367.274C117.101 367.274 117.416 367.171 117.666 366.966C117.922 366.761 118.109 366.493 118.227 366.163ZM120.686 365.085C120.686 364.469 120.796 363.934 121.016 363.479C121.236 363.017 121.544 362.661 121.94 362.412C122.343 362.163 122.813 362.038 123.348 362.038C123.803 362.038 124.213 362.141 124.58 362.346C124.954 362.551 125.255 362.874 125.482 363.314C125.717 363.754 125.849 364.304 125.878 364.964L125.889 365.371H121.643C121.687 365.972 121.856 366.442 122.149 366.779C122.45 367.109 122.849 367.274 123.348 367.274C123.671 367.274 123.964 367.186 124.228 367.01C124.492 366.834 124.69 366.592 124.822 366.284L125.79 366.35C125.621 366.893 125.313 367.325 124.866 367.648C124.419 367.971 123.913 368.132 123.348 368.132C122.813 368.132 122.343 368.007 121.94 367.758C121.544 367.509 121.236 367.157 121.016 366.702C120.796 366.24 120.686 365.701 120.686 365.085ZM124.899 364.568C124.818 363.989 124.639 363.567 124.36 363.303C124.081 363.032 123.744 362.896 123.348 362.896C122.879 362.896 122.501 363.043 122.215 363.336C121.929 363.622 121.746 364.033 121.665 364.568H124.899ZM128.258 360.19V366.834C128.258 366.959 128.288 367.05 128.346 367.109C128.412 367.168 128.508 367.197 128.632 367.197H129.127V368H128.5C128.156 368 127.877 367.897 127.664 367.692C127.459 367.479 127.356 367.208 127.356 366.878V360.19H128.258ZM131.319 362.17V368H130.417V362.17H131.319ZM131.341 360.212V361.257H130.395V360.212H131.341ZM133.853 362.17L133.897 363.666L133.776 363.545C133.871 363.046 134.091 362.672 134.436 362.423C134.78 362.166 135.195 362.038 135.679 362.038C136.317 362.038 136.804 362.243 137.142 362.654C137.479 363.065 137.648 363.596 137.648 364.249V368H136.746V364.513C136.746 364.146 136.702 363.842 136.614 363.6C136.526 363.351 136.39 363.164 136.207 363.039C136.023 362.907 135.785 362.841 135.492 362.841C135.008 362.841 134.626 362.988 134.348 363.281C134.069 363.567 133.93 363.978 133.93 364.513V368H133.028V362.17H133.853ZM138.872 365.085C138.872 364.469 138.982 363.934 139.202 363.479C139.422 363.017 139.73 362.661 140.126 362.412C140.53 362.163 140.999 362.038 141.534 362.038C141.989 362.038 142.4 362.141 142.766 362.346C143.14 362.551 143.441 362.874 143.668 363.314C143.903 363.754 144.035 364.304 144.064 364.964L144.075 365.371H139.829C139.873 365.972 140.042 366.442 140.335 366.779C140.636 367.109 141.036 367.274 141.534 367.274C141.857 367.274 142.15 367.186 142.414 367.01C142.678 366.834 142.876 366.592 143.008 366.284L143.976 366.35C143.808 366.893 143.5 367.325 143.052 367.648C142.605 367.971 142.099 368.132 141.534 368.132C140.999 368.132 140.53 368.007 140.126 367.758C139.73 367.509 139.422 367.157 139.202 366.702C138.982 366.24 138.872 365.701 138.872 365.085ZM143.085 364.568C143.005 363.989 142.825 363.567 142.546 363.303C142.268 363.032 141.93 362.896 141.534 362.896C141.065 362.896 140.687 363.043 140.401 363.336C140.115 363.622 139.932 364.033 139.851 364.568H143.085ZM148.832 363.963C148.766 363.64 148.594 363.384 148.315 363.193C148.036 362.995 147.725 362.896 147.38 362.896C147.043 362.896 146.76 362.98 146.533 363.149C146.306 363.31 146.192 363.527 146.192 363.798C146.199 364.062 146.331 364.267 146.588 364.414C146.852 364.553 147.189 364.667 147.6 364.755C148.099 364.85 148.509 364.964 148.832 365.096C149.162 365.221 149.419 365.397 149.602 365.624C149.793 365.851 149.888 366.148 149.888 366.515C149.888 366.874 149.778 367.175 149.558 367.417C149.345 367.659 149.067 367.839 148.722 367.956C148.377 368.073 148.011 368.132 147.622 368.132C147.16 368.132 146.742 368.051 146.368 367.89C146.001 367.729 145.704 367.501 145.477 367.208C145.257 366.907 145.132 366.563 145.103 366.174L146.049 366.108C146.093 366.343 146.181 366.548 146.313 366.724C146.445 366.9 146.621 367.036 146.841 367.131C147.068 367.226 147.329 367.274 147.622 367.274C147.974 367.274 148.282 367.212 148.546 367.087C148.81 366.955 148.942 366.75 148.942 366.471C148.942 366.273 148.883 366.119 148.766 366.009C148.656 365.899 148.52 365.818 148.359 365.767C148.205 365.708 147.989 365.65 147.71 365.591C147.644 365.576 147.552 365.554 147.435 365.525C146.98 365.422 146.603 365.312 146.302 365.195C146.001 365.078 145.752 364.913 145.554 364.7C145.356 364.48 145.257 364.198 145.257 363.853C145.25 363.486 145.338 363.167 145.521 362.896C145.712 362.625 145.976 362.416 146.313 362.269C146.65 362.115 147.039 362.038 147.479 362.038C148.066 362.038 148.572 362.21 148.997 362.555C149.422 362.892 149.683 363.34 149.778 363.897L148.832 363.963Z" fill="#1A1A1A"/>
<rect x="238.75" y="326.75" width="80.5" height="40.5" rx="3.25" stroke="black" stroke-width="1.5"/>
<path d="M271.589 344.554H269.246V351H267.64V344.554H265.297V343.19H271.589V344.554ZM274.087 345.17L274.142 346.853L274.032 346.798C274.106 346.248 274.263 345.841 274.505 345.577C274.747 345.306 275.088 345.17 275.528 345.17H276.067V346.369H275.517C275.202 346.369 274.945 346.42 274.747 346.523C274.549 346.618 274.403 346.769 274.307 346.974C274.219 347.172 274.175 347.425 274.175 347.733V351H272.591V345.17H274.087ZM276.861 346.963C276.978 346.347 277.264 345.874 277.719 345.544C278.181 345.207 278.79 345.038 279.545 345.038C280.418 345.038 281.074 345.251 281.514 345.676C281.961 346.101 282.185 346.732 282.185 347.568V349.449C282.185 349.618 282.218 349.735 282.284 349.801C282.35 349.867 282.442 349.9 282.559 349.9H282.768V351L282.46 351.011H282.427C282.229 351.026 282.02 351.022 281.8 351C281.58 350.971 281.375 350.89 281.184 350.758C281.001 350.626 280.887 350.413 280.843 350.12C280.696 350.428 280.454 350.674 280.117 350.857C279.787 351.04 279.369 351.132 278.863 351.132C278.262 351.132 277.763 350.982 277.367 350.681C276.971 350.373 276.773 349.97 276.773 349.471C276.773 349.112 276.857 348.818 277.026 348.591C277.195 348.364 277.437 348.184 277.752 348.052C278.067 347.913 278.478 347.792 278.984 347.689L280.59 347.37C280.59 346.937 280.502 346.618 280.326 346.413C280.157 346.208 279.893 346.105 279.534 346.105C279.248 346.105 279.013 346.186 278.83 346.347C278.654 346.501 278.533 346.736 278.467 347.051L276.861 346.963ZM278.401 349.416C278.401 349.614 278.482 349.775 278.643 349.9C278.804 350.017 279.035 350.076 279.336 350.076C279.585 350.076 279.805 350.017 279.996 349.9C280.194 349.775 280.348 349.592 280.458 349.35C280.568 349.101 280.623 348.8 280.623 348.448V348.382L279.611 348.569L279.435 348.602C279.186 348.646 278.991 348.694 278.852 348.745C278.72 348.796 278.61 348.877 278.522 348.987C278.441 349.09 278.401 349.233 278.401 349.416ZM285.39 345.17V351H283.806V345.17H285.39ZM285.423 343.19V344.4H283.784V343.19H285.423ZM288.211 345.17L288.288 346.853L288.09 346.776C288.171 346.167 288.38 345.727 288.717 345.456C289.062 345.177 289.491 345.038 290.004 345.038C290.635 345.038 291.126 345.236 291.478 345.632C291.83 346.028 292.006 346.567 292.006 347.249V351H290.422V347.766C290.422 347.429 290.393 347.157 290.334 346.952C290.276 346.739 290.177 346.578 290.037 346.468C289.905 346.358 289.726 346.303 289.498 346.303C289.139 346.303 288.86 346.428 288.662 346.677C288.472 346.919 288.376 347.282 288.376 347.766V351H286.792V345.17H288.211Z" fill="black"/>
</g>
<defs>
<linearGradient id="paint0_linear_1082_2191" x1="28" y1="36" x2="28" y2="12" gradientUnits="userSpaceOnUse">
<stop/>
<stop offset="1" stop-color="#2F2A2A"/>
</linearGradient>
<linearGradient id="paint1_linear_1082_2191" x1="30.3524" y1="26.3523" x2="36.1474" y2="32.2048" gradientUnits="userSpaceOnUse">
<stop stop-color="#FF7670"/>
<stop offset="1" stop-color="#FFC170"/>
</linearGradient>
<linearGradient id="paint2_linear_1082_2191" x1="21.8033" y1="17.5738" x2="32.1884" y2="28.5327" gradientUnits="userSpaceOnUse">
<stop offset="0.292045" stop-color="#FFC170"/>
<stop offset="1" stop-color="#FF7670"/>
</linearGradient>
<linearGradient id="paint3_linear_1082_2191" x1="153.54" y1="116.54" x2="232.229" y2="196.008" gradientUnits="userSpaceOnUse">
<stop stop-color="#FF7670"/>
<stop offset="1" stop-color="#FFC170"/>
</linearGradient>
<clipPath id="clip0_1082_2191">
<rect width="360" height="408" rx="8" fill="white"/>
</clipPath>
<clipPath id="clip1_1082_2191">
<rect x="16" y="12" width="24" height="24" rx="4" fill="white"/>
</clipPath>
</defs>
</svg>
