<svg width="32" height="32" viewBox="0 0 32 32" fill="none" xmlns="http://www.w3.org/2000/svg">
<g clip-path="url(#clip0_1082_2180)">
<rect width="32" height="32" rx="2" fill="url(#paint0_linear_1082_2180)"/>
<path d="M25.2836 19.0312L21.9978 22.3171L18.7119 25.603V20.929C18.7119 19.8809 19.5616 19.0312 20.6097 19.0312H25.2836Z" fill="url(#paint1_linear_1082_2180)"/>
<path d="M22.2358 6.56006C24.1823 6.56006 25.7602 8.138 25.7602 10.0845V17.4045H20.6091C18.6627 17.4045 17.0847 18.9825 17.0847 20.9289V26.0801H9.76468C7.81818 26.0801 6.24023 24.5021 6.24023 22.5556V10.0845C6.24023 8.138 7.81818 6.56006 9.76468 6.56006H22.2358Z" fill="url(#paint2_linear_1082_2180)"/>
</g>
<defs>
<linearGradient id="paint0_linear_1082_2180" x1="16" y1="32" x2="16" y2="-2.27192e-07" gradientUnits="userSpaceOnUse">
<stop/>
<stop offset="1" stop-color="#2F2A2A"/>
</linearGradient>
<linearGradient id="paint1_linear_1082_2180" x1="19.2808" y1="19.6001" x2="27.3608" y2="27.7601" gradientUnits="userSpaceOnUse">
<stop stop-color="#FF7670"/>
<stop offset="1" stop-color="#FFC170"/>
</linearGradient>
<linearGradient id="paint2_linear_1082_2180" x1="7.36023" y1="7.36006" x2="21.8402" y2="22.6401" gradientUnits="userSpaceOnUse">
<stop offset="0.292045" stop-color="#FFC170"/>
<stop offset="1" stop-color="#FF7670"/>
</linearGradient>
<clipPath id="clip0_1082_2180">
<rect width="32" height="32" rx="2" fill="white"/>
</clipPath>
</defs>
</svg>
